<?xml version="1.0" standalone="no"?><!DOCTYPE svg PUBLIC "-//W3C//DTD SVG 1.1//EN" "http://www.w3.org/Graphics/SVG/1.1/DTD/svg11.dtd"><svg class="icon" width="200px" height="200.00px" viewBox="0 0 1024 1024" version="1.1" xmlns="http://www.w3.org/2000/svg"><path d="M512 318.3v408.5L301.7 560.1l-71.1-158.5 38.2-83.3 129.7-58.8z" fill="#FFBFFD" /><path d="M512 183l-113.5 76.5L339.9 112z" fill="#FB7DC9" /><path d="M268.8 318.3L339.9 112l58.6 147.5z" fill="#FF98E3" /><path d="M150 198.1l118.8 120.2L339.9 112z" fill="#FB7DC9" /><path d="M84.4 356.6l146.2 45 38.2-83.3L150 198.1z" fill="#FF98E3" /><path d="M137.7 528.7l92.9-127.1-146.2-45z" fill="#FB7DC9" /><path d="M218.3 653l83.4-92.9-71.1-158.5-92.9 127.1z" fill="#FF98E3" /><path d="M512 726.8l-98.3 98.5L512 912z" fill="#FB7DC9" /><path d="M301.7 560.1l112 265.2 98.3-98.5z" fill="#FF98E3" /><path d="M218.3 653l195.4 172.3-112-265.2z" fill="#FB7DC9" /><path d="M512 183v135.3l-113.5-58.8zM512 318.3v408.5l210.3-166.7 71.1-158.5-38.2-83.3-129.7-58.8z" fill="#FF98E3" /><path d="M512 183l113.5 76.5L684.1 112z" fill="#FA56A2" /><path d="M755.2 318.3L684.1 112l-58.6 147.5z" fill="#FB7DC9" /><path d="M874 198.1L755.2 318.3 684.1 112z" fill="#FA56A2" /><path d="M939.6 356.6l-146.2 45-38.2-83.3L874 198.1z" fill="#FB7DC9" /><path d="M886.3 528.7l-92.9-127.1 146.2-45z" fill="#FA56A2" /><path d="M805.7 653l-83.4-92.9 71.1-158.5 92.9 127.1z" fill="#FB7DC9" /><path d="M512 726.8l98.3 98.5L512 912z" fill="#FA56A2" /><path d="M722.3 560.1l-112 265.2-98.3-98.5z" fill="#FB7DC9" /><path d="M805.7 653L610.3 825.3l112-265.2z" fill="#FA56A2" /><path d="M512 183v135.3l113.5-58.8z" fill="#FB7DC9" /><path d="M784.4 310.6c-20.7-4.7-36.9-21-41.6-41.6-0.4-1.6-2.4-1.6-2.8 0-4.7 20.7-21 36.9-41.6 41.6-1.6 0.4-1.6 2.4 0 2.8 20.7 4.7 36.9 21 41.6 41.6 0.4 1.6 2.4 1.6 2.8 0 4.7-20.7 21-36.9 41.6-41.6 1.5-0.4 1.5-2.5 0-2.8zM660.2 258c-16.2-4.2-29-17-33.2-33.2-0.4-1.6-2.5-1.6-3 0-4.2 16.2-17 29-33.2 33.2-1.6 0.4-1.6 2.5 0 3 16.2 4.2 29 17 33.2 33.2 0.4 1.6 2.5 1.6 3 0 4.2-16.2 17-29 33.2-33.2 1.6-0.5 1.6-2.6 0-3z" fill="#FFFFFF" /></svg>