<?xml version="1.0" standalone="no"?><!DOCTYPE svg PUBLIC "-//W3C//DTD SVG 1.1//EN" "http://www.w3.org/Graphics/SVG/1.1/DTD/svg11.dtd"><svg class="icon" width="200px" height="200.00px" viewBox="0 0 1024 1024" version="1.1" xmlns="http://www.w3.org/2000/svg"><path d="M523.4 294.1L413 317.6l18.2-183.9z" fill="#BCD6FD" /><path d="M532.9 112l-9.5 182.1-92.2-160.4v-0.1z" fill="#D8E5FE" /><path d="M431.2 133.7L413 317.6l-82.9-162.5z" fill="#B0C5FD" /><path d="M523.4 294.1L517 417.4v0.4c-1.9-0.1-3.7-0.2-5.6-0.2-15.2 0-29.6 3.6-42.3 10l-56-110 110.3-23.5z" fill="#D8E5FE" /><path d="M512 417.6v188.9c-1.6 0-3.3-0.1-4.9-0.2v0.4c-14.3-0.8-28.5-4.9-41.7-12.5-1.6-0.9-3.2-1.9-4.8-3l-0.2 0.3c-11.9-7.8-22.2-18.5-29.8-31.7-0.9-1.6-1.8-3.2-2.7-4.9l-0.3 0.2c-6.4-12.7-10-27.1-10-42.3 0-1.9 0.1-3.7 0.2-5.6h-0.4c0.8-14.3 4.9-28.5 12.5-41.7 0.9-1.6 1.9-3.2 3-4.8l-0.3-0.2c7.8-11.9 18.5-22.2 31.7-29.8 1.6-0.9 3.2-1.8 4.9-2.7l-0.2-0.3c12.7-6.4 27.1-10 42.3-10h0.7z" fill="#EBF2FF" /><path d="M594.1 558.6c-0.9 1.6-1.9 3.2-3 4.8l0.3 0.2c-7.8 11.9-18.5 22.2-31.7 29.8-1.6 0.9-3.3 1.8-4.9 2.7l0.2 0.3c-12.7 6.4-27.1 10-42.3 10h-0.7V417.6c1.6 0 3.3 0.1 4.9 0.2v-0.4c14.3 0.8 28.5 4.9 41.7 12.5 1.6 0.9 3.2 1.9 4.8 3l0.2-0.3c11.9 7.8 22.2 18.5 29.8 31.7 0.9 1.6 1.8 3.2 2.7 4.9l0.3-0.2c6.4 12.7 10 27.1 10 42.3 0 1.9-0.1 3.7-0.2 5.6h0.4c-0.8 14.3-4.8 28.6-12.5 41.7z" fill="#D8E5FE" /><path d="M469.2 427.9h-0.1l-0.1-0.3z" fill="#871E1E" /><path d="M413 317.6l-84 75.6-76.2-168.4z" fill="#B0C5FD" /><path d="M330.1 155.1L413 317.6l-160.2-92.8v-0.1z" fill="#D8E5FE" /><path d="M252.8 224.8L329 393.2l-152.9-99.3z" fill="#97B7FC" /><path d="M469.2 427.9c-1.7 0.8-3.4 1.7-5 2.7-13.2 7.6-23.9 17.9-31.7 29.8L329 393.2l83.9-75.6 56 110 0.3 0.3zM329 393.2l-34.9 107.4-150.2-107.8z" fill="#BCD6FD" /><path d="M176.1 293.9L329 393.2l-185.1-0.4z" fill="#D8E5FE" /><path d="M143.9 392.8l150.2 107.8L112 491z" fill="#B0C5FD" /><path d="M432.8 460.6c-1 1.6-2 3.1-3 4.8-7.6 13.2-11.7 27.4-12.5 41.7l-123.2-6.5L329 393.2l103.5 67.2 0.3 0.2z" fill="#D8E5FE" /><path d="M417.7 507.1h-0.3v-0.1z" fill="#871E1E" /><path d="M294.1 500.6L317.6 611l-183.9-18.2z" fill="#B0C5FD" /><path d="M112 491.1l182.1 9.5-160.4 92.2h-0.1z" fill="#D8E5FE" /><path d="M133.7 592.8L317.6 611l-162.5 82.9z" fill="#97B7FC" /><path d="M427.6 555l-110 56-23.5-110.4 123.2 6.4h0.4c-0.1 1.9-0.2 3.7-0.2 5.6 0.1 15.3 3.6 29.7 10.1 42.4z" fill="#BCD6FD" /><path d="M427.9 554.8v0.1l-0.3 0.1z" fill="#871E1E" /><path d="M317.6 611l75.6 84-168.4 76.2z" fill="#B0C5FD" /><path d="M155.1 693.9L317.6 611l-92.8 160.2h-0.1z" fill="#D8E5FE" /><path d="M224.8 771.2L393.2 695l-99.3 152.9z" fill="#97B7FC" /><path d="M460.4 591.5L393.2 695l-75.6-84 110-56 0.3-0.2c0.8 1.7 1.7 3.3 2.7 4.9 7.5 13.3 17.9 24 29.8 31.8z" fill="#D8E5FE" /><path d="M393.2 695l107.4 34.9-107.8 150.2z" fill="#B0C5FD" /><path d="M293.9 847.9L393.2 695l-0.4 185.1z" fill="#D8E5FE" /><path d="M392.8 880.1l107.8-150.2L491 912z" fill="#97B7FC" /><path d="M507.1 606.6l-6.5 123.2L393.2 695l67.2-103.5 0.2-0.3c1.6 1 3.1 2 4.8 3 13.1 7.6 27.4 11.6 41.7 12.4z" fill="#BCD6FD" /><path d="M507.1 606.3v0.3h-0.1l0.1-0.3z" fill="#871E1E" /><path d="M500.6 729.9L611 706.4l-18.2 183.9z" fill="#97B7FC" /><path d="M491.1 912l9.5-182.1 92.2 160.4v0.1z" fill="#7AA0F4" /><path d="M592.8 890.3L611 706.4l82.9 162.5z" fill="#BCD6FD" /><path d="M611 706.4l-110.4 23.5 6.4-123.2v-0.4c1.9 0.1 3.7 0.2 5.6 0.2 15.2 0 29.6-3.6 42.3-10L611 706.4z" fill="#B0C5FD" /><path d="M611 706.4l84-75.6 76.2 168.4z" fill="#97B7FC" /><path d="M693.9 868.9L611 706.4l160.2 92.8v0.1z" fill="#84ADF7" /><path d="M771.2 799.2L695 630.8l152.9 99.3zM695 630.8l-84 75.6-56-110-0.2-0.3c1.7-0.8 3.3-1.7 4.9-2.7 13.2-7.6 23.9-17.9 31.7-29.8L695 630.8z" fill="#BCD6FD" /><path d="M695 630.8l34.9-107.4 150.2 107.8z" fill="#97B7FC" /><path d="M847.9 730.1L695 630.8l185.1 0.4z" fill="#84ADF7" /><path d="M880.1 631.2L729.9 523.4 912 533z" fill="#BCD6FD" /><path d="M729.9 523.4L695 630.8l-103.5-67.2-0.3-0.2c1-1.6 2-3.1 3-4.8 7.6-13.2 11.7-27.4 12.5-41.7l123.2 6.5z" fill="#B0C5FD" /><path d="M606.6 516.9v0.1l-0.3-0.1z" fill="#871E1E" /><path d="M729.9 523.4L706.4 413l183.9 18.2z" fill="#B0C5FD" /><path d="M912 532.9l-182.1-9.5 160.4-92.2h0.1z" fill="#97B7FC" /><path d="M890.3 431.2L706.4 413l162.5-82.9zM729.9 523.4L606.6 517h-0.4c0.1-1.9 0.2-3.7 0.2-5.6 0-15.2-3.6-29.6-10-42.3l110-56 23.5 110.3z" fill="#BCD6FD" /><path d="M596.4 469l-0.3 0.2v-0.1z" fill="#871E1E" /><path d="M706.4 413l-75.6-84 168.4-76.2z" fill="#97B7FC" /><path d="M868.9 330.1L706.4 413l92.8-160.2h0.1z" fill="#84ADF7" /><path d="M799.2 252.8L630.8 329l99.3-152.9z" fill="#BCD6FD" /><path d="M706.4 413l-110 56-0.3 0.2c-0.8-1.7-1.7-3.3-2.7-4.9-7.6-13.2-17.9-23.9-29.8-31.7L630.8 329l75.6 84z" fill="#B0C5FD" /><path d="M630.8 329l-107.4-34.9 107.8-150.2z" fill="#B0C5FD" /><path d="M730.1 176.1L630.8 329l0.4-185.1z" fill="#97B7FC" /><path d="M631.2 143.9L523.4 294.1 533 112zM630.8 329l-67.2 103.5-0.2 0.3c-1.6-1-3.1-2-4.8-3-13.2-7.6-27.4-11.7-41.7-12.5l6.5-123.2L630.8 329z" fill="#BCD6FD" /><path d="M517 417.4l-0.1 0.3v-0.3z" fill="#871E1E" /><path d="M749.4 426.5c-20.7-4.7-36.9-21-41.6-41.6-0.4-1.6-2.4-1.6-2.8 0-4.7 20.7-21 36.9-41.6 41.6-1.6 0.4-1.6 2.4 0 2.8 20.7 4.7 36.9 21 41.6 41.6 0.4 1.6 2.4 1.6 2.8 0 4.7-20.7 21-36.9 41.6-41.6 1.5-0.4 1.5-2.5 0-2.8zM656.9 338.6c-16.2-4.2-29-17-33.2-33.2-0.4-1.6-2.5-1.6-3 0-4.2 16.2-17 29-33.2 33.2-1.6 0.4-1.6 2.5 0 3 16.2 4.2 29 17 33.2 33.2 0.4 1.6 2.5 1.6 3 0 4.2-16.2 17-29 33.2-33.2 1.6-0.5 1.6-2.6 0-3z" fill="#FFFFFF" /></svg>