<?xml version="1.0" standalone="no"?><!DOCTYPE svg PUBLIC "-//W3C//DTD SVG 1.1//EN" "http://www.w3.org/Graphics/SVG/1.1/DTD/svg11.dtd"><svg class="icon" width="200px" height="200.00px" viewBox="0 0 1024 1024" version="1.1" xmlns="http://www.w3.org/2000/svg"><path d="M512 148.3L393.5 306.8 302 148.3z" fill="#BCD6FD" /><path d="M722 148.3l-91.5 158.4L512 148.3z" fill="#B0C5FD" /><path d="M512 512z" fill="#82D2FF" /><path d="M275 512H92l108.4-187.8z" fill="#BCD6FD" /><path d="M393.5 306.8l-193.1 17.4L302 148.3z" fill="#B0C5FD" /><path d="M512 512z" fill="#82D2FF" /><path d="M275 512l-78 181.8L92 512z" fill="#B0C5FD" /><path d="M393.5 717.3L302 875.7 197 693.8z" fill="#BCD6FD" /><path d="M932 512H749l78-181.8z" fill="#B0C5FD" /><path d="M827 330.2l-196.5-23.5L722 148.3z" fill="#97B7FC" /><path d="M302 875.7l91.5-158.4L512 875.7z" fill="#B0C5FD" /><path d="M512 875.7l118.5-158.5L722 875.7z" fill="#97B7FC" /><path d="M827 693.8L722 875.7l-91.5-158.5z" fill="#B0C5FD" /><path d="M932 512L827 693.8 749 512z" fill="#97B7FC" /><path d="M512 306.7v410.6H393.5L275 512l118.5-205.2z" fill="#EBF2FF" /><path d="M512 148.3v158.4l-118.5 0.1zM393.5 306.8L275 512l-74.6-187.8zM393.5 717.3L197 693.8 275 512zM512 717.3v158.4L393.5 717.3z" fill="#D8E5FE" /><path d="M827 693.8l-196.5 23.4L749 512zM827 330.2L749 512 630.5 306.7zM630.5 306.7H512V148.3z" fill="#BCD6FD" /><path d="M749 512L630.5 717.2l-118.5 0.1V306.7h118.5z" fill="#D8E5FE" /><path d="M630.5 717.2L512 875.7V717.3z" fill="#BCD6FD" /><path d="M747.9 419.7c-20.7-4.7-36.9-21-41.6-41.6-0.4-1.6-2.4-1.6-2.8 0-4.7 20.7-21 36.9-41.6 41.6-1.6 0.4-1.6 2.4 0 2.8 20.7 4.7 36.9 21 41.6 41.6 0.4 1.6 2.4 1.6 2.8 0 4.7-20.7 21-36.9 41.6-41.6 1.5-0.4 1.5-2.5 0-2.8zM677.7 308.8c-16.2-4.2-29-17-33.2-33.2-0.4-1.6-2.5-1.6-3 0-4.2 16.2-17 29-33.2 33.2-1.6 0.4-1.6 2.5 0 3 16.2 4.2 29 17 33.2 33.2 0.4 1.6 2.5 1.6 3 0 4.2-16.2 17-29 33.2-33.2 1.6-0.5 1.6-2.6 0-3z" fill="#FFFFFF" /></svg>